<svg width="42" height="42" viewBox="0 0 42 42" fill="none" xmlns="http://www.w3.org/2000/svg">
<path d="M33.3072 12.701C33.3072 12.701 27.9812 5.70273 24.0986 4.87001C11.2926 2.1236 4.13895 13.1535 11.4453 24.3804C12.591 26.1407 13.6 26.9952 13.6 26.9952C14.9136 25.0119 17.221 21.8328 17.221 21.8328L16.0478 20.1061C11.4448 13.3322 20.6811 6.37037 25.8827 12.6717C27.4824 12.6717 33.3072 12.701 33.3072 12.701Z" fill="#224E59"/>
<path d="M33.424 19.0703C33.424 19.0703 28.8081 19.0101 26.5004 19.0101C23.3975 23.7623 20.3259 28.5345 17.2544 33.307C18.3415 34.8384 20.8552 38.3144 20.8552 38.3144L33.424 19.0703Z" fill="#224E59"/>
</svg>
