<svg width="90" height="90" viewBox="0 0 90 90" fill="none" xmlns="http://www.w3.org/2000/svg">
<path d="M72.2444 26.0643C72.2444 26.0643 60.5914 10.7523 52.0964 8.93029C24.0774 2.92126 8.42541 27.0543 24.4114 51.6183C26.9182 55.4698 29.1258 57.3394 29.1258 57.3394C32 53 37.0484 46.0443 37.0484 46.0443L34.4814 42.2663C24.4104 27.4453 44.619 12.213 56 26C59.5 26 72.2444 26.0643 72.2444 26.0643Z" fill="#A8EEE7"/>
<path d="M72.5 40C72.5 40 62.4005 39.8683 57.3514 39.8683C50.5624 50.2658 43.8418 60.7074 37.1214 71.1493C39.5 74.5 45 82.1054 45 82.1054L72.5 40Z" fill="#A8EEE7"/>
</svg>
