<svg width="14" height="15" viewBox="0 0 14 15" fill="none" xmlns="http://www.w3.org/2000/svg">
<path d="M10.6535 9.85687L6.99995 13.1993L3.34638 9.85601C2.62418 9.19466 2.13244 8.35217 1.93331 7.43503C1.73419 6.5179 1.83663 5.56732 2.22768 4.70348C2.61873 3.83963 3.28084 3.10131 4.13028 2.58186C4.97973 2.06241 5.97837 1.78516 6.99995 1.78516C8.02153 1.78516 9.02018 2.06241 9.86962 2.58186C10.7191 3.10131 11.3812 3.83963 11.7722 4.70348C12.1633 5.56732 12.2657 6.5179 12.0666 7.43503C11.8675 8.35217 11.3757 9.19552 10.6535 9.85687ZM6.99995 8.23207C7.49815 8.23207 7.97594 8.05092 8.32821 7.72848C8.68049 7.40604 8.8784 6.96871 8.8784 6.5127C8.8784 6.0567 8.68049 5.61937 8.32821 5.29693C7.97594 4.97448 7.49815 4.79334 6.99995 4.79334C6.50176 4.79334 6.02397 4.97448 5.67169 5.29693C5.31942 5.61937 5.12151 6.0567 5.12151 6.5127C5.12151 6.96871 5.31942 7.40604 5.67169 7.72848C6.02397 8.05092 6.50176 8.23207 6.99995 8.23207Z" fill="#B0100D"/>
</svg>
